<svg xmlns="http://www.w3.org/2000/svg" xmlns:xlink="http://www.w3.org/1999/xlink" width="455.404" height="98.958" viewBox="0 0 120.492 26.183"><defs><linearGradient id="a"><stop offset="0" style="stop-color:#008df3;stop-opacity:1"/><stop offset=".345" style="stop-color:#0019ea;stop-opacity:1"/><stop offset=".7" style="stop-color:#2b00ea;stop-opacity:1"/><stop offset="1" style="stop-color:#ff8508;stop-opacity:1"/></linearGradient><linearGradient xlink:href="#a" id="b" x1="51.049" x2="162.351" y1="121.609" y2="121.609" gradientUnits="userSpaceOnUse"/></defs><path d="M50.56 134.467h3.583v-7.58h3.617c6.133 0 9.337-3.014 9.337-8.784 0-5.323-3.204-8.096-9.337-8.096h-7.2zm3.583-10.852V113.28h3.617c3.755 0 5.72 1.653 5.72 4.823 0 3.617-1.965 5.512-5.72 5.512zm28.456 10.852h3.652v-11.886c0-4.272-2.205-6.718-6.063-6.718-3.066 0-4.617 1.206-4.823 3.652h-.345V108.63h-3.652v25.838h3.652v-10.266c0-3.514 1.447-5.237 4.307-5.237 2.067 0 3.272 1.31 3.272 3.617zm16.881.345c5.065 0 7.993-3.446 7.993-9.475 0-6.028-2.928-9.474-7.993-9.474-5.064 0-7.992 3.446-7.992 9.474 0 6.03 2.928 9.475 7.992 9.475m0-3.273c-2.687 0-4.203-2.24-4.203-6.202s1.516-6.2 4.203-6.2 4.203 2.239 4.203 6.2-1.515 6.202-4.203 6.202m23.978 3.273c1.723 0 3.17-.138 4.789-.414l-.413-3.204c-1.654.207-2.894.345-4.031.345-3.239 0-4.548-1.24-4.548-4.134v-7.993h8.303v-3.204h-8.303v-5.512h-3.651v5.512h-4.582v3.204h4.582v8.165c0 5.064 2.308 7.235 7.854 7.235m17.364 0c5.064 0 7.992-3.446 7.992-9.475 0-6.028-2.928-9.474-7.992-9.474-5.065 0-7.993 3.446-7.993 9.474 0 6.03 2.928 9.475 7.993 9.475m0-3.273c-2.688 0-4.203-2.24-4.203-6.202s1.515-6.2 4.203-6.2c2.687 0 4.203 2.239 4.203 6.2s-1.516 6.202-4.203 6.202m18 2.928h5.34l6.89-24.46h-3.686l-5.719 21.532h-.31l-5.719-21.532h-3.686z" aria-label="PhotoV" style="font-size:35.2778px;line-height:97.1902px;font-family:&quot;Cascadia Mono PL&quot;;-inkscape-font-specification:&quot;Cascadia Mono PL, Normal&quot;;fill:url(#b);stroke-width:.316" transform="translate(-50.56 -108.63)"/></svg>